HIERARCHY
ROOT Hips
{
  OFFSET -321.463 94.9166 302.073
  CHANNELS 6 Xposition Yposition Zposition Zrotation Xrotation Yrotation
  JOINT ToSpine
  {
    OFFSET -0.0105055 1.38907 -7.13956
    CHANNELS 3 Zrotation Xrotation Yrotation
    JOINT Spine
    {
      OFFSET 0.0105055 10 1
      CHANNELS 3 Zrotation Xrotation Yrotation
      JOINT Spine1
      {
        OFFSET 0 12 1.60637
        CHANNELS 3 Zrotation Xrotation Yrotation
        JOINT Neck
        {
          OFFSET 0 27 2.26658
          CHANNELS 3 Zrotation Xrotation Yrotation
          JOINT Head
          {
            OFFSET 0 9 2.12705
            CHANNELS 3 Zrotation Xrotation Yrotation
            End Site
            {
              OFFSET 0 11 2
            }
          }
        }
        JOINT LeftShoulder
        {
          OFFSET 8 19.6109 2.86452
          CHANNELS 3 Zrotation Xrotation Yrotation
          JOINT LeftArm
          {
            OFFSET 12 1 0.681055
            CHANNELS 3 Zrotation Xrotation Yrotation
            JOINT LeftForeArm
            {
              OFFSET 19 0 -1.52608
              CHANNELS 3 Zrotation Xrotation Yrotation
              JOINT LeftHand
              {
                OFFSET 23 0 0
                CHANNELS 3 Zrotation Xrotation Yrotation
                End Site
                {
                  OFFSET 10 0 0
                }
              }
            }
          }
        }
        JOINT RightShoulder
        {
          OFFSET -8 19.6109 2.86452
          CHANNELS 3 Zrotation Xrotation Yrotation
          JOINT RightArm
          {
            OFFSET -12 1 0.681055
            CHANNELS 3 Zrotation Xrotation Yrotation
            JOINT RightForeArm
            {
              OFFSET -19 0 -1.52608
              CHANNELS 3 Zrotation Xrotation Yrotation
              JOINT RightHand
              {
                OFFSET -23 0 0
                CHANNELS 3 Zrotation Xrotation Yrotation
                End Site
                {
                  OFFSET -10 0 0
                }
              }
            }
          }
        }
      }
    }
  }
  JOINT LeftUpLeg
  {
    OFFSET 9 -7.17245 0
    CHANNELS 3 Zrotation Xrotation Yrotation
    JOINT LeftLeg
    {
      OFFSET 0 -44.1113 0
      CHANNELS 3 Zrotation Xrotation Yrotation
      JOINT LeftFoot
      {
        OFFSET 0 -36.1829 0
        CHANNELS 3 Zrotation Xrotation Yrotation
        JOINT LeftToeBase
        {
          OFFSET 0 -4.84184 13
          CHANNELS 3 Zrotation Xrotation Yrotation
          End Site
          {
            OFFSET 0 1 6
          }
        }
      }
    }
  }
  JOINT RightUpLeg
  {
    OFFSET -9 -7.17245 0
    CHANNELS 3 Zrotation Xrotation Yrotation
    JOINT RightLeg
    {
      OFFSET 0 -44.0551 0
      CHANNELS 3 Zrotation Xrotation Yrotation
      JOINT RightFoot
      {
        OFFSET 0 -36.1469 0
        CHANNELS 3 Zrotation Xrotation Yrotation
        JOINT RightToeBase
        {
          OFFSET 0 -4.92256 13
          CHANNELS 3 Zrotation Xrotation Yrotation
          End Site
          {
            OFFSET 0 1 6
          }
        }
      }
    }
  }
}
MOTION
Frames:	12
Frame Time:	0.0333333
-321.459 94.9198 302.073 -3.03731 -5.46127 -48.7711 0 0 0 7.5159 -0.645715 2.33034 -11.0473 12.0521 5.09614 2.07735 12.4113 17.5272 -4.92208 -8.13094 19.561 -28.5407 3.68764 -7.11925 -41.663 20.1606 -12.0147 -6.09924 -32.1039 -3.88281 -3.77871 0.261088 -7.93051 28.7047 10.5859 26.3215 45.7556 5.53582 0.0753287 3.25924 -9.71339 9.77918 2.11976 0.103984 5.21408 -0.559069 6.15359 6.03564 -0.925358 3.88748 -12.8384 3.0676 -3.81515 0.099929 0.160076 2.10552 -1.15094 -2.85239 2.47578 -5.8993 -2.00735 11.8078 8.02791 -12.3523 -2.71707 -0.294072 4.38819 -16.6221 -4.04823 
-321.457 94.9256 302.073 -2.99712 -5.43523 -48.7042 0 0 0 7.39027 -0.737426 2.34454 -10.8296 12.1348 5.04845 2.56051 11.5422 17.5255 -5.30871 -6.10836 19.7808 -28.7292 3.68173 -7.04639 -41.2389 20.5114 -12.3193 -6.15975 -32.6445 -3.66165 -3.56017 0.261479 -8.44864 28.7072 10.5855 26.318 45.6196 5.63085 -0.0253784 3.31829 -9.89225 9.83665 2.14255 0.103958 5.36824 -0.568237 6.06844 5.99978 -0.87529 3.97786 -12.9628 2.76434 -4.21498 0.102967 0.0825157 2.72429 -0.98686 -2.86438 2.48801 -5.91222 -1.98324 11.7194 8.13716 -12.4129 -2.72956 -0.296905 4.34524 -16.4719 -4.33973 
-321.49 94.9156 302.074 -3.04052 -5.42737 -48.6092 0 0 0 7.28409 -0.673304 2.38619 -10.5519 12.066 5.01314 2.73159 12.1672 17.6373 -5.58418 -7.14939 20.0352 -28.9085 3.70633 -7.06369 -40.8491 21.1093 -12.5784 -6.2648 -33.6272 -3.36735 -4.03809 0.242795 -6.86878 28.4286 10.4139 26.0752 45.8787 5.70409 -0.0168117 3.2584 -9.58212 9.84519 2.05081 0.103967 5.3139 -0.483497 6.12089 6.08423 -0.958449 3.95545 -13.055 3.03932 -4.27823 0.112998 0.278177 2.4633 -1.68205 -2.7826 2.593 -5.89759 -1.97489 11.6275 7.8976 -12.4647 -2.7776 -0.30335 4.32991 -16.3831 -4.09354 
-321.517 94.926 302.082 -3.06574 -5.42009 -48.5377 0 0 0 7.36884 -0.563788 2.41179 -10.6123 11.9065 5.05435 3.34685 11.6836 17.5925 -5.80472 -6.11272 20.2514 -28.805 3.70468 -7.08974 -41.0672 20.9373 -12.315 -6.29965 -32.9368 -3.81147 -3.66945 0.237479 -7.39871 28.346 10.2491 25.6884 46.0255 6.16502 0.106602 3.41009 -9.95942 9.83686 2.0613 0.103969 5.30444 -0.412377 6.19527 6.14711 -1.04344 3.80996 -13.0934 3.35366 -3.88843 0.115571 0.417176 1.95685 -2.13008 -2.76135 2.64843 -5.93773 -1.93723 11.5781 7.92001 -12.5281 -2.52365 -0.277073 4.40624 -16.72 -4.25402 
-321.565 94.9408 302.106 -3.07265 -5.41228 -48.3909 0 0 0 7.21603 -0.46364 2.48116 -10.1854 11.7677 5.00801 2.43057 11.9598 17.3417 -5.36757 -7.21539 19.5581 -29.2307 3.73781 -7.05917 -40.7444 21.056 -12.15 -6.46466 -32.8248 -4.23756 -3.83224 0.248078 -7.40563 27.9705 9.99443 25.2858 46.3655 6.29532 0.0457044 3.44151 -9.9703 10.028 2.03376 0.103978 5.24918 -0.367127 6.27605 6.159 -1.03333 3.70577 -13.3111 2.99559 -4.11599 0.113444 0.32916 2.21494 -1.83434 -2.69602 2.83676 -5.93485 -1.95727 11.2942 7.81667 -12.4713 -2.51659 -0.275014 4.38877 -16.657 -4.35134 
-321.624 94.9405 302.131 -3.06836 -5.36427 -48.2077 0 0 0 7.40801 -0.377548 2.5281 -10.465 11.4453 5.10606 2.43423 13.8903 16.4429 -6.43577 -11.1755 18.8457 -28.7728 3.78275 -7.32131 -41.2579 20.8741 -11.9832 -6.25488 -32.1695 -3.96093 -3.91133 0.245635 -7.18373 28.0084 9.85741 24.8718 46.7256 6.00766 -0.217249 3.31274 -9.51719 10.3863 2.12169 0.103979 5.24348 -0.28615 6.24498 6.1818 -1.05662 3.73509 -13.4453 3.28627 -3.9499 0.109983 0.378886 1.74862 -1.93956 -2.62463 2.98748 -5.96388 -1.91398 11.058 7.59861 -12.4513 -2.52563 -0.275542 4.35063 -16.4816 -4.20465 
-321.701 94.9472 302.161 -3.02896 -5.28244 -47.9228 0 0 0 7.03617 -0.506517 2.66681 -9.47741 11.5372 4.98453 1.13645 14.5501 16.3355 -6.32774 -13.1728 18.1663 -29.956 3.86821 -7.20918 -40.0156 21.7743 -12.39 -6.43013 -32.5523 -3.77565 -4.1027 0.265894 -7.41108 27.0986 9.35017 24.1521 47.3969 6.11313 0.0304579 3.26747 -9.27898 10.2558 2.0717 0.10395 5.41323 -0.172516 6.23093 6.22648 -1.12762 3.63172 -13.777 3.44066 -3.65862 0.10873 0.414042 1.07217 -1.94875 -2.50449 3.12943 -5.95246 -1.90622 10.7474 7.21871 -12.5508 -2.34314 -0.257706 4.39975 -16.6734 -4.08 
-321.802 94.9558 302.199 -3.00655 -5.22439 -47.6036 0 0 0 6.88071 -0.505247 2.79306 -8.94404 11.3813 4.94838 0.494972 14.2458 16.3621 -5.69156 -12.5368 17.8522 -30.4762 3.9419 -7.25988 -39.4919 22.4847 -12.6196 -6.47692 -32.425 -3.38937 -4.26517 0.286829 -7.6958 26.4487 8.8909 23.3277 48.0261 6.10856 0.0949429 3.09649 -8.50633 10.2256 2.20215 0.104699 5.46751 -0.0142924 6.15253 6.34434 -1.19739 3.78711 -14.2863 3.20571 -4.12783 0.110468 0.341584 2.06939 -1.8552 -2.41165 3.36286 -5.97475 -1.85201 10.3842 7.00651 -12.5916 -2.30738 -0.254619 4.37054 -16.574 -4.29356 
-321.903 94.971 302.253 -3.03971 -5.16671 -47.3017 0 0 0 6.83535 -0.392113 2.8963 -8.58838 11.0657 4.94335 0.313322 13.9383 16.2548 -5.32052 -12.019 17.6185 -30.7781 3.9994 -7.32794 -39.0219 23.0983 -12.8152 -6.50131 -32.2736 -3.23661 -4.6024 0.285112 -7.08879 25.8656 8.46364 22.5085 48.7784 6.21942 -0.0550215 3.09848 -8.36955 10.5482 2.16583 0.101308 5.36279 0.148317 6.23816 6.4398 -1.28031 3.68458 -14.6974 3.21164 -4.03742 0.113305 0.374162 1.85187 -1.94168 -2.31497 3.57962 -6.0445 -1.78491 10.1424 6.7426 -12.4174 -2.24534 -0.244281 4.36318 -16.5222 -4.09339 
-322.028 94.9665 302.294 -3.07506 -5.07301 -46.9113 0 0 0 6.77177 -0.371829 2.98703 -8.189 10.8604 4.91009 0.17557 13.5463 16.2058 -4.98073 -11.3113 17.4644 -30.942 4.04073 -7.39155 -38.9758 23.2042 -12.8284 -6.48701 -31.4881 -3.27231 -4.84237 0.280988 -6.63295 25.2359 7.99383 21.5676 49.571 6.59801 0.0826298 3.24223 -8.73775 10.4989 1.766 0.0856464 5.54827 0.387463 6.23576 6.58874 -1.39733 3.72176 -15.2073 3.60752 -3.79898 0.119747 0.391751 1.03306 -1.85194 -2.11836 3.88093 -6.04894 -1.72634 9.71882 6.28254 -12.3964 -2.16724 -0.235432 4.3689 -16.5471 -4.10295 
-322.156 94.9838 302.34 -3.11464 -4.99514 -46.5218 0 0 0 6.7905 -0.27531 3.0629 -7.98643 10.5461 4.9068 0.0954624 13.2463 16.0678 -4.5578 -10.444 17.2318 -31.0161 4.07172 -7.45298 -38.6885 23.7815 -13.0766 -6.45787 -31.1841 -2.87887 -5.00445 0.303369 -6.9367 24.7791 7.55772 20.5543 50.2432 6.7216 0.0290969 3.10077 -7.98575 10.7554 1.86886 0.0877486 5.37723 0.645709 6.18381 6.77737 -1.50648 3.91012 -15.8392 3.43793 -4.27558 0.12837 0.362055 1.81479 -1.88621 -1.90749 4.24057 -6.00684 -1.72138 9.18764 5.90292 -12.2613 -2.05247 -0.220463 4.34243 -16.4489 -4.2244 
-322.3 94.9781 302.388 -3.17632 -4.94142 -46.1424 0 0 0 6.66976 -0.113661 3.20101 -7.39693 10.2503 4.87233 -0.356484 12.4449 16.1884 -3.89355 -8.80904 17.064 -31.3635 4.12719 -7.49976 -38.5063 24.0221 -13.2561 -6.42743 -30.4523 -2.66426 -5.25621 0.302826 -6.58953 23.778 7.00734 19.5438 51.3247 6.70263 -0.0797349 2.96969 -7.43979 11.1266 1.86837 0.0817838 5.01552 0.9023 6.18392 6.96065 -1.59461 4.06808 -16.426 3.21085 -4.34367 0.121823 0.322137 1.87146 -1.73977 -1.70766 4.62897 -6.00018 -1.67323 8.70797 5.47335 -12.2398 -2.07048 -0.222064 4.28382 -16.1981 -4.17584 
